<svg width="59" height="59" viewBox="0 0 59 59" fill="none" xmlns="http://www.w3.org/2000/svg">
<circle cx="29.5" cy="29.5" r="29.5" fill="#FFD7DF"/>
<path fill-rule="evenodd" clip-rule="evenodd" d="M29.1153 26.1931L28.7306 42.3501C22.7306 38.1834 11.2306 28.3501 13.2306 22.3501C15.7115 14.9074 24.101 13.3734 29.1153 21.1682C34.1296 13.3734 42.5191 14.9074 45 22.3501C47 28.3501 35.5 38.1834 29.5 42.3501L29.1153 26.1931Z" fill="#FA7070"/>
<path d="M28.7306 42.3501L28.4454 42.7608L29.2084 43.2906L29.2305 42.362L28.7306 42.3501ZM29.1153 26.1931L29.6152 26.1812H28.6155L29.1153 26.1931ZM13.2306 22.3501L12.7563 22.192L12.7563 22.192L13.2306 22.3501ZM29.1153 21.1682L28.6948 21.4387L29.1153 22.0924L29.5358 21.4387L29.1153 21.1682ZM45 22.3501L44.5257 22.5082L44.5257 22.5082L45 22.3501ZM29.5 42.3501L29.0001 42.362L29.0223 43.2906L29.7852 42.7608L29.5 42.3501ZM29.2305 42.362L29.6152 26.205L28.6155 26.1812L28.2308 42.3382L29.2305 42.362ZM12.7563 22.192C12.1965 23.8714 12.5996 25.7566 13.5154 27.6391C14.435 29.5295 15.9068 31.4913 17.6099 33.3731C21.018 37.1389 25.425 40.6633 28.4454 42.7608L29.0158 41.9394C26.0362 39.8702 21.6932 36.3946 18.3513 32.7021C16.6794 30.8547 15.2762 28.9727 14.4146 27.2017C13.5492 25.4227 13.2648 23.8288 13.705 22.5082L12.7563 22.192ZM29.5358 20.8977C26.9507 16.8792 23.4322 15.1829 20.1673 15.5482C16.9077 15.9129 14.0476 18.318 12.7563 22.192L13.705 22.5082C14.8945 18.9395 17.4696 16.8563 20.2785 16.542C23.0822 16.2283 26.2655 17.6624 28.6948 21.4387L29.5358 20.8977ZM29.5358 21.4387C31.9651 17.6624 35.1484 16.2283 37.9521 16.542C40.761 16.8563 43.3361 18.9395 44.5257 22.5082L45.4743 22.192C44.183 18.318 41.3229 15.9129 38.0633 15.5482C34.7984 15.1829 31.2799 16.8792 28.6948 20.8977L29.5358 21.4387ZM44.5257 22.5082C44.9658 23.8288 44.6815 25.4227 43.816 27.2017C42.9544 28.9727 41.5512 30.8547 39.8793 32.7021C36.5374 36.3946 32.1944 39.8702 29.2148 41.9394L29.7852 42.7608C32.8056 40.6633 37.2126 37.1389 40.6207 33.3731C42.3238 31.4913 43.7956 29.5295 44.7152 27.6391C45.631 25.7566 46.0341 23.8714 45.4743 22.192L44.5257 22.5082ZM29.9999 42.3382L29.6152 26.1812L28.6155 26.205L29.0001 42.362L29.9999 42.3382Z" fill="#FA7070"/>
</svg>
