<svg width="59" height="59" viewBox="0 0 59 59" fill="none" xmlns="http://www.w3.org/2000/svg">
<circle cx="29.5" cy="29.5" r="29.5" fill="white"/>
<path d="M20.8359 34.6406C20.8359 32.9089 21.0508 31.5286 21.4805 30.5C21.9102 29.4714 22.7565 28.3451 24.0195 27.1211C25.2956 25.8841 26.1029 25.0052 26.4414 24.4844C26.9622 23.6901 27.2227 22.8307 27.2227 21.9062C27.2227 20.6823 26.9167 19.7513 26.3047 19.1133C25.7057 18.4622 24.8203 18.1367 23.6484 18.1367C22.5286 18.1367 21.6237 18.4557 20.9336 19.0938C20.2565 19.7188 19.918 20.5716 19.918 21.6523H15.1719C15.1979 19.3477 15.9792 17.5247 17.5156 16.1836C19.0651 14.8424 21.1094 14.1719 23.6484 14.1719C26.2656 14.1719 28.3034 14.8359 29.7617 16.1641C31.2331 17.4922 31.9688 19.3477 31.9688 21.7305C31.9688 23.8529 30.9792 25.9427 29 28L26.5977 30.3633C25.7383 31.3398 25.2956 32.7656 25.2695 34.6406H20.8359ZM20.5039 40.7148C20.5039 39.9466 20.7448 39.3281 21.2266 38.8594C21.7083 38.3776 22.3594 38.1367 23.1797 38.1367C24.013 38.1367 24.6706 38.3841 25.1523 38.8789C25.6341 39.3607 25.875 39.9727 25.875 40.7148C25.875 41.431 25.6406 42.0299 25.1719 42.5117C24.7031 42.9935 24.0391 43.2344 23.1797 43.2344C22.3203 43.2344 21.6562 42.9935 21.1875 42.5117C20.7318 42.0299 20.5039 41.431 20.5039 40.7148ZM40.9141 34.6211H36.832L36.3828 14.5625H41.3828L40.9141 34.6211ZM36.2461 40.7539C36.2461 40.0117 36.487 39.3997 36.9688 38.918C37.4505 38.4232 38.1081 38.1758 38.9414 38.1758C39.7747 38.1758 40.4323 38.4232 40.9141 38.918C41.3958 39.3997 41.6367 40.0117 41.6367 40.7539C41.6367 41.4701 41.4023 42.069 40.9336 42.5508C40.4648 43.0326 39.8008 43.2734 38.9414 43.2734C38.082 43.2734 37.418 43.0326 36.9492 42.5508C36.4805 42.069 36.2461 41.4701 36.2461 40.7539Z" fill="#AAB8E7"/>
</svg>
